<?xml version="1.0" encoding="utf-8"?>
<!DOCTYPE svg PUBLIC "-//W3C//DTD SVG 20010904//EN" "http://www.w3.org/TR/2001/REC-SVG-20010904/DTD/svg10.dtd">
<svg version="1.0" xmlns="http://www.w3.org/2000/svg" width="330px" height="150px" viewBox="0 0 330 150" preserveAspectRatio="xMidYMid meet">
 <g fill="none" stroke="#e6e6e6" stroke-width="1">
  <path d="M0 75 l0 -75 165 0 165 0 0 75 0 75 -165 0 -165 0 0 -75z m34 31.9 c0 -1.2 -0.6 -1.6 -2 -1.2 -3.1 0.8 -4.5 3 -3 4.8 1.2 1.4 1.5 1.4 3.1 -0.1 1.1 -1 1.9 -2.5 1.9 -3.5z m8.6 -8.4 c3.1 -2.6 5.2 -3.5 7.8 -3.5 2 0 3.6 -0.4 3.6 -0.8 0 -1.1 -7.1 -8.2 -8.2 -8.2 -0.4 0 -0.8 1.3 -0.8 2.9 0 1.9 -1.4 4.7 -4 8 -2.2 2.8 -3.7 5.1 -3.4 5.1 0.4 0 2.6 -1.6 5 -3.5z m41.4 -36.9 c17.3 -15.7 18.6 -17.2 20.7 -22.7 2.5 -6.6 2.4 -6.7 -4.8 -4.1 -4 1.5 -7.1 4.5 -21.4 20.2 -9.2 10.2 -17.9 19.7 -19.3 21.2 -2.5 2.7 -2.5 2.8 -0.7 4.8 l1.8 2 2.6 -2.3 c1.4 -1.3 10.9 -9.9 21.1 -19.1z"/>
 </g>
 <g fill="#666666">
  <path d="M147 71.5 c0 -29 0.3 -44.5 1 -44.5 0.7 0 1 15.5 1 44.5 0 29 -0.3 44.5 -1 44.5 -0.7 0 -1 -15.5 -1 -44.5z"/>
  <path d="M25.7 113.2 c-3.4 -3.8 -1.4 -9 4 -10.6 1.1 -0.4 4.4 -3.7 7.2 -7.3 l5.2 -6.7 -4.6 -4.6 -4.5 -4.6 2.3 -2.2 2.3 -2.2 8.2 5.7 c6.4 4.6 9.2 7.4 13.3 13.6 l5.3 7.8 -2.2 2.1 -2.2 2.2 -4.3 -4.2 c-2.3 -2.3 -4.6 -4.2 -5 -4.2 -1.8 0 -13.7 10.4 -13.7 11.9 0 4.6 -8.1 6.9 -11.3 3.3z"/>
  <path d="M208.3 110 c-2.7 -1.1 -4.3 -4 -4.3 -7.9 0 -4 4 -7.1 9.1 -7.1 4 0 4.6 -0.9 3.3 -4.4 -0.8 -2 -6 -2.1 -6.8 -0.1 -0.3 0.8 -1.5 1.5 -2.6 1.5 -2.9 0 -2.6 -3.4 0.6 -5.9 3.6 -2.8 7.9 -2.7 10.9 0.4 2.3 2.3 2.5 3.1 2.5 13 l0 10.5 -3.2 -0.1 c-1.8 -0.1 -4.2 0.1 -5.3 0.4 -1.1 0.4 -3 0.2 -4.2 -0.3z m8.1 -5.6 c1.5 -3.9 0.7 -5.4 -2.9 -5.4 -3.7 0 -6 2.5 -4.9 5.4 0.8 2.2 7 2.2 7.8 0z"/>
  <path d="M267.3 110.2 c-4.4 -0.7 -6.3 -4.7 -6.3 -13.4 0 -7 0.3 -8.2 2.5 -10.3 2.7 -2.8 6.3 -3.2 10.4 -1 3.4 1.7 4.1 3.3 4.1 9.1 l0 4.4 -6.5 0 c-5.2 0 -6.5 0.3 -6.5 1.6 0 5 5.7 7.4 8.2 3.4 1.6 -2.5 4.8 -2.6 4.8 -0.2 0 3.7 -5.8 7.2 -10.7 6.4z m6.7 -16.6 c0 -2.2 -3.1 -5.6 -5.2 -5.6 -1.5 0 -3.8 3.3 -3.8 5.6 0 2.2 0.4 2.4 4.5 2.4 4.1 0 4.5 -0.2 4.5 -2.4z"/>
  <path d="M286.5 109.8 c-2.7 -1.4 -4.5 -3.8 -4.5 -6 0 -2.5 3.2 -2.3 4.8 0.3 1.8 2.8 6.6 2.3 7 -0.9 0.3 -1.8 -0.5 -2.6 -4 -4.1 -5.7 -2.4 -7.8 -4.6 -7.8 -8.1 0 -3.6 4.1 -7 8.5 -7 3.4 0 7.5 3.4 7.5 6.3 0 2.4 -3.2 2.1 -4.8 -0.3 -1.6 -2.6 -4.8 -2.6 -6.2 0 -1.1 2.1 0 3.2 6.5 6.1 6.3 2.9 7.2 10.5 1.5 13.4 -3.4 1.8 -5.7 1.9 -8.5 0.3z"/>
  <path d="M184.7 108.9 c-3.4 -2 -4.7 -6.4 -4.7 -15.9 0 -13 2.5 -17 10.5 -17 4.2 0 9.5 4.4 9.5 7.9 0 3 -4.2 2.8 -5.5 -0.1 -1.3 -3 -6.4 -3.7 -8.2 -1.2 -0.8 1.2 -1.3 5 -1.3 10.9 0 7.6 0.3 9.5 1.8 10.8 4 3.7 9.2 0.5 9.2 -5.5 0 -2.4 -0.4 -2.8 -3 -2.8 -2.3 0 -3 -0.4 -3 -2 0 -1.7 0.7 -2 5 -2 l5 0 0 6.5 c0 5.7 -0.3 6.9 -2.5 9 -1.8 1.9 -3.5 2.5 -6.7 2.5 -2.4 0 -5.1 -0.5 -6.1 -1.1z"/>
  <path d="M227 97.5 c0 -10.4 0.2 -12.5 1.5 -12.5 0.8 0 1.5 0.5 1.5 1.1 0 0.5 1 0.3 2.2 -0.5 2.9 -2 5.8 -2 8.6 0 2.1 1.5 2.5 1.5 4.1 0 3.2 -2.9 7.4 -1.8 9.6 2.5 1 1.9 1.5 5.9 1.5 12.4 0 9.4 0 9.5 -2.5 9.5 -2.4 0 -2.4 -0.1 -2.7 -10.2 l-0.3 -10.3 -3 0 -3 0 -0.3 10.3 c-0.3 10.1 -0.3 10.2 -2.7 10.2 -2.4 0 -2.4 -0.1 -2.7 -10.2 -0.3 -10.1 -0.4 -10.3 -2.7 -10.6 -4 -0.6 -5.1 2.1 -5.1 12 0 8.1 -0.2 8.8 -2 8.8 -1.9 0 -2 -0.7 -2 -12.5z"/>
  <path d="M55.2 84.3 c-2.4 -2.4 -4.2 -4.8 -4 -5.3 0.2 -0.4 9.5 -10.8 20.7 -23.1 l20.3 -22.4 9.7 -3.2 c5.3 -1.7 9.7 -2.7 9.9 -2.2 0.2 0.5 -1 5.1 -2.8 10.1 l-3.1 9.3 -22.6 20.5 c-12.4 11.3 -22.8 20.6 -23.2 20.6 -0.3 0.1 -2.5 -1.8 -4.9 -4.3z"/>
  <path d="M217.4 64.5 c-4 -1.6 -4.4 -2.9 -4.4 -12.6 0 -7.1 0.3 -8.3 2.5 -10.4 2.6 -2.7 6 -3.2 9.8 -1.4 3.1 1.4 4.7 4.8 4.7 9.9 l0 4 -6.5 0 c-6.1 0 -6.5 0.1 -6.5 2.3 0 4.6 5.9 6.6 8 2.7 1.2 -2.3 5 -2.7 5 -0.6 0 2.2 -4.2 6.3 -7 6.9 -1.4 0.3 -3.9 0 -5.6 -0.8z m7.6 -16.3 c0 -3 -1.6 -5.2 -3.6 -5.2 -2.1 0 -4.4 3 -4.4 5.6 0 2.1 0.4 2.4 4 2.4 3.7 0 4 -0.2 4 -2.8z"/>
  <path d="M259.2 63.5 c-3.5 -2.9 -4.3 -6.5 -1.4 -6.5 0.9 0 2.3 0.9 3 2 1.5 2.5 6.7 2.7 7.6 0.4 0.8 -2.1 -0.7 -3.9 -4.7 -5.5 -7.8 -3 -10.1 -8.9 -5.1 -12.8 3.8 -3 8 -2.7 11.5 0.8 1.6 1.6 2.9 3.4 2.9 4 0 1.9 -4.5 1.2 -5.8 -1 -1.7 -2.7 -5.6 -2.2 -6 0.9 -0.3 1.8 0.4 2.6 3.5 3.8 5.6 2.3 8.3 5.2 8.3 8.9 0 3.9 -2.5 6.4 -7.2 7.1 -2.7 0.5 -4 0.1 -6.6 -2.1z"/>
  <path d="M180 47.9 l0 -17 2.7 0.3 c2.5 0.3 3.1 1.3 6.3 9.5 1.9 5 3.8 9.4 4.1 9.7 0.3 0.4 2.4 -3.8 4.6 -9.1 3.6 -8.6 4.4 -9.8 6.7 -10.1 l2.6 -0.3 0 17 0 17.1 -2.5 0 -2.5 0 -0.1 -11.2 c0 -7.5 -0.3 -10.6 -0.9 -9.3 -0.5 1.1 -1.9 4.4 -3.1 7.3 -1.9 4.6 -2.5 5.3 -4.7 5 -2.2 -0.3 -2.9 -1.4 -5.1 -7.3 l-2.6 -7 -0.3 11.3 c-0.3 11.2 -0.3 11.2 -2.7 11.2 l-2.5 0 0 -17.1z"/>
  <path d="M235 52.5 c0 -10.4 0.2 -12.5 1.5 -12.5 0.8 0 1.5 0.4 1.5 1 0 0.5 1.3 0.2 2.9 -0.8 2.3 -1.3 3.6 -1.4 5.7 -0.7 4.3 1.5 5.4 4.8 5.4 15.8 0 9.7 0 9.7 -2.5 9.7 -2.4 0 -2.4 -0.1 -2.7 -10.2 -0.3 -10.1 -0.4 -10.3 -2.7 -10.6 -4 -0.6 -5.1 2.1 -5.1 12 0 8.1 -0.2 8.8 -2 8.8 -1.9 0 -2 -0.7 -2 -12.5z"/>
  <path d="M278 63 c-4.9 -4.9 -0.5 -13 7 -13 4.1 0 4.8 -0.9 3.4 -4.4 -0.8 -2 -6 -2.1 -6.8 -0.1 -0.3 0.8 -1.5 1.5 -2.6 1.5 -2.9 0 -2.6 -3.4 0.6 -5.9 3.4 -2.7 7.4 -2.7 10.8 0 2.5 2 2.6 2.4 2.6 12.9 l0 10.8 -6.5 0.1 c-5.3 0.1 -6.9 -0.3 -8.5 -1.9z m10.4 -3.6 c0.3 -0.9 0.6 -2.5 0.6 -3.5 0 -1.7 -0.6 -2 -3.7 -1.7 -3.9 0.3 -5.2 2.1 -3.9 5.4 0.7 1.9 6.2 1.8 7 -0.2z"/>
 </g>
 <g fill="#000000">
 </g>
</svg>